<svg xmlns="http://www.w3.org/2000/svg" viewBox="0 0 100 100" role="img" aria-label="Yarnside">
  <rect width="100" height="100" rx="20" fill="#c2d6ca"/>
  <path transform="translate(31.22 38.82) scale(0.5)" fill="#9f2d27"
    d="M40.04 1.37Q43.46-2.05 46.97-5.62Q50.49-9.18 53.81-13.09Q57.13-16.99 60.01-21.24Q62.89-25.49 65.14-30.27Q65.63-31.35 66.50-31.88Q67.38-32.42 68.46-32.42Q70.12-32.42 71.14-31.25Q72.17-30.08 72.17-28.61Q72.17-27.83 71.88-27.15Q68.85-20.80 64.94-15.53Q61.04-10.25 56.74-5.52Q52.44-0.78 48.05 3.66Q43.65 8.11 39.65 12.60Q39.26 19.34 39.65 26.12Q40.04 32.91 40.04 40.53Q40.04 46.78 39.65 53.03Q39.26 59.28 38.38 64.99Q37.50 70.70 35.99 75.68Q34.47 80.66 32.13 84.33Q29.79 87.99 26.66 90.09Q23.54 92.19 19.34 92.19Q12.40 92.19 8.69 87.40Q4.98 82.62 4.98 74.02Q4.98 69.34 6.01 63.96Q7.03 58.59 8.89 52.88Q10.74 47.17 13.33 41.31Q15.92 35.45 18.95 29.88Q21.97 24.32 25.39 19.29Q28.81 14.26 32.32 10.16Q32.52 5.47 32.76 0.44Q33.01-4.59 33.30-8.89Q30.76-4.39 27-1.66Q23.24 1.07 18.75 1.07Q11.33 1.07 7.13-3.91Q2.93-8.89 2.93-17.58Q2.93-23.93 4.15-29.15Q5.37-34.37 6.79-38.13Q8.20-41.89 9.38-43.90Q10.55-45.90 10.55-45.80Q11.62-47.46 13.57-47.46Q15.23-47.46 16.26-46.34Q17.29-45.21 17.29-43.75Q17.29-42.68 16.70-41.80Q16.80-41.89 15.77-40.19Q14.75-38.48 13.53-35.25Q12.30-32.03 11.28-27.54Q10.25-23.05 10.25-17.68Q10.25-12.30 12.21-9.28Q14.16-6.25 18.55-6.25Q24.12-6.25 28.61-14.50Q33.11-22.75 36.23-38.48Q36.43-39.75 37.40-40.58Q38.38-41.41 39.75-41.41Q41.31-41.41 42.38-40.33Q43.46-39.26 43.46-37.70Q43.46-37.40 43.07-34.23Q42.68-31.05 42.14-25.78Q41.60-20.51 41.02-13.53Q40.43-6.54 40.04 1.37M32.23 22.07Q27.83 28.42 24.17 35.45Q20.51 42.48 17.87 49.41Q15.23 56.35 13.77 62.70Q12.30 69.04 12.30 74.02Q12.30 79.10 13.96 81.98Q15.63 84.86 19.24 84.86Q22.46 84.86 24.95 81.69Q27.44 78.52 29.15 72.66Q30.86 66.80 31.74 58.45Q32.62 50.10 32.62 39.75Q32.62 35.55 32.47 31.25Q32.32 26.95 32.23 22.07"/>
</svg>
